<svg xmlns="http://www.w3.org/2000/svg" x="0px" y="0px"
     width="64" height="64"
     viewBox="0 0 64 64"
     style=" fill:#000000;"><polygon fill="#ff9811" points="61 57 61 61 42 61 42 57 45 57 51 57 55 57 61 57"></polygon><path fill="#754c29" d="M61,55v2H55l-2-1V53h6A2.006,2.006,0,0,1,61,55Z"></path><path fill="#ff6243" d="M53,24l2-2a6,6,0,0,1,6,6v9H45V28a6,6,0,0,1,6-6Z"></path><polygon fill="#787680" points="53 53 48 53 48 37 58 37 58 53 53 53"></polygon><path fill="#787680" d="M58,12v2H56.83a2.006,2.006,0,0,1-1.42-.59L54,12l-.83.83A4,4,0,0,1,50.34,14H48V12a5,5,0,0,1,10,0Z"></path><path fill="#ffc477" d="M57,14v2a3.994,3.994,0,0,1-6,3.46,4.225,4.225,0,0,1-.83-.63A4.025,4.025,0,0,1,49,16V14h1.34a4,4,0,0,0,2.83-1.17L54,12l1.41,1.41a2.006,2.006,0,0,0,1.42.59Z"></path><path fill="#ffb655" d="M55,19.46V22l-2,2-2-2V19.46a3.974,3.974,0,0,0,4,0Z"></path><path fill="#8b5e3c" d="M53,53v3l-2,1H45V55a2.006,2.006,0,0,1,2-2h6Z"></path><polygon fill="#cc7400" points="42 57 42 61 22 61 22 57 22 53 24 53 30 53 34 53 40 53 42 53 42 57"></polygon><path fill="#754c29" d="M40,51v2H34l-2-1V49h6A2.006,2.006,0,0,1,40,51Z"></path><path fill="#3d9ae2" d="M37,33H24V24a6,6,0,0,1,6-6l2,2,2-2a6,6,0,0,1,6,6v9Z"></path><polygon fill="#787680" points="32 49 27 49 27 33 37 33 37 49 32 49"></polygon><path fill="#787680" d="M37,8v2H35.83a2.006,2.006,0,0,1-1.42-.59L33,8l-.83.83A4,4,0,0,1,29.34,10H27V8A5,5,0,0,1,37,8Z"></path><path fill="#ffc477" d="M36,10v2a3.994,3.994,0,0,1-6,3.46,4.225,4.225,0,0,1-.83-.63A4.025,4.025,0,0,1,28,12V10h1.34a4,4,0,0,0,2.83-1.17L33,8l1.41,1.41a2.006,2.006,0,0,0,1.42.59Z"></path><path fill="#ffb655" d="M34,15.46V18l-2,2-2-2V15.46a3.974,3.974,0,0,0,4,0Z"></path><path fill="#8b5e3c" d="M32,49v3l-2,1H24V51a2.006,2.006,0,0,1,2-2h6Z"></path><polygon fill="#ff9811" points="22 57 22 61 3 61 3 57 9 57 13 57 19 57 22 57"></polygon><path fill="#754c29" d="M19,55v2H13l-2-1V53h6A2.006,2.006,0,0,1,19,55Z"></path><path fill="#00ccb3" d="M11,24l2-2a6,6,0,0,1,6,6v9H3V28a6,6,0,0,1,6-6Z"></path><polygon fill="#787680" points="11 53 6 53 6 37 16 37 16 53 11 53"></polygon><path fill="#787680" d="M16,12v2H14.83a2.006,2.006,0,0,1-1.42-.59L12,12l-.83.83A4,4,0,0,1,8.34,14H6V12a5,5,0,0,1,10,0Z"></path><path fill="#ffc477" d="M15,14v2a3.994,3.994,0,0,1-6,3.46,4.225,4.225,0,0,1-.83-.63A4.025,4.025,0,0,1,7,16V14H8.34a4,4,0,0,0,2.83-1.17L12,12l1.41,1.41a2.006,2.006,0,0,0,1.42.59Z"></path><path fill="#ffb655" d="M13,19.46V22l-2,2L9,22V19.46a3.974,3.974,0,0,0,4,0Z"></path><path fill="#8b5e3c" d="M11,53v3L9,57H3V55a2.006,2.006,0,0,1,2-2h6Z"></path><path fill="#ffa733" d="M55,19.46v1a3.974,3.974,0,0,1-4,0v-1a3.974,3.974,0,0,0,4,0Z"></path><path fill="#ffa733" d="M34,15.46v1a3.974,3.974,0,0,1-4,0v-1a3.974,3.974,0,0,0,4,0Z"></path><path fill="#ffa733" d="M13,19.46v1a3.974,3.974,0,0,1-4,0v-1a3.974,3.974,0,0,0,4,0Z"></path><path d="M61,38a1,1,0,0,0,1-1V28a7.011,7.011,0,0,0-6-6.929v-1.1A4.977,4.977,0,0,0,58,16V15a1,1,0,0,0,1-1V12a6,6,0,0,0-12,0v2a1,1,0,0,0,1,1v1a4.977,4.977,0,0,0,2,3.974v1.1A7.011,7.011,0,0,0,44,28v9a1,1,0,0,0,1,1h2V52a3,3,0,0,0-3,3v1H43V53a1,1,0,0,0-1-1H41V51a3,3,0,0,0-3-3V34h2a1,1,0,0,0,1-1V24a7.011,7.011,0,0,0-6-6.929v-1.1A4.977,4.977,0,0,0,37,12V11a1,1,0,0,0,1-1V8A6,6,0,0,0,26,8v2a1,1,0,0,0,1,1v1a4.977,4.977,0,0,0,2,3.974v1.1A7.011,7.011,0,0,0,23,24v9a1,1,0,0,0,1,1h2V48a3,3,0,0,0-3,3v1H22a1,1,0,0,0-1,1v3H20V55a3,3,0,0,0-3-3V38h2a1,1,0,0,0,1-1V28a7.011,7.011,0,0,0-6-6.929v-1.1A4.977,4.977,0,0,0,16,16V15a1,1,0,0,0,1-1V12A6,6,0,0,0,5,12v2a1,1,0,0,0,1,1v1a4.977,4.977,0,0,0,2,3.974v1.1A7.011,7.011,0,0,0,2,28v9a1,1,0,0,0,1,1H5V52a3,3,0,0,0-3,3v6a1,1,0,0,0,1,1H61a1,1,0,0,0,1-1V55a3,3,0,0,0-3-3V38ZM49,12a4,4,0,0,1,8,0v1h-.172a1.009,1.009,0,0,1-.707-.293l-1.414-1.414a1,1,0,0,0-1.414,0l-.828.829A2.983,2.983,0,0,1,50.343,13H49Zm1.343,3a4.968,4.968,0,0,0,3.536-1.464L54,13.415l.707.706A2.96,2.96,0,0,0,56,14.87V16a3,3,0,0,1-6,0V15ZM53,21a5,5,0,0,0,1-.1v.687l-1,1-1-1V20.9A5,5,0,0,0,53,21Zm-7,7a4.991,4.991,0,0,1,4.624-4.962L52,24.414V34h2V24.414l1.376-1.376A4.991,4.991,0,0,1,60,28v8H59V27H57v9H49V27H47v9H46Zm0,27a1,1,0,0,1,1-1h5v1.382L50.764,56H46Zm-7-4v1H34.236L33,51.382V50h5A1,1,0,0,1,39,51ZM28,8a4,4,0,0,1,8,0V9h-.172a1.009,1.009,0,0,1-.707-.293L33.707,7.293a1,1,0,0,0-1.414,0l-.829.829A3.02,3.02,0,0,1,29.343,9H28Zm1.343,3a4.966,4.966,0,0,0,3.535-1.464L33,9.414l.707.707A2.96,2.96,0,0,0,35,10.87V12a3,3,0,0,1-6,0V11ZM32,17a5,5,0,0,0,1-.1v.687l-1,1-1-1V16.9A5,5,0,0,0,32,17Zm-7,7a4.991,4.991,0,0,1,4.624-4.962L31,20.414V30h2V20.414l1.376-1.376A4.991,4.991,0,0,1,39,24v8H38V23H36v9H28V23H26v9H25Zm3,10h8V48H33V36H31V48H28ZM25,51a1,1,0,0,1,1-1h5v1.382L29.764,52H25Zm-7,4v1H13.236L12,55.382V54h5A1,1,0,0,1,18,55ZM7,12a4,4,0,0,1,8,0v1h-.171a1,1,0,0,1-.708-.293l-1.414-1.414a1,1,0,0,0-1.414,0l-.829.829A3.02,3.02,0,0,1,8.343,13H7Zm1.343,3a4.966,4.966,0,0,0,3.535-1.464L12,13.414l.707.707A2.96,2.96,0,0,0,14,14.87V16a3,3,0,0,1-6,0V15ZM11,21a5,5,0,0,0,1-.1v.687l-1,1-1-1V20.9A5,5,0,0,0,11,21ZM4,28a4.991,4.991,0,0,1,4.624-4.962L10,24.414V34h2V24.414l1.376-1.376A4.991,4.991,0,0,1,18,28v8H17V27H15v9H7V27H5v9H4ZM7,38h8V52H12V40H10V52H7ZM4,55a1,1,0,0,1,1-1h5v1.382L8.764,56H4Zm0,3H21v2H4Zm19-4H41v6H23Zm37,6H43V58H60Zm0-5v1H55.236L54,55.382V54h5A1,1,0,0,1,60,55Zm-3-3H54V40H52V52H49V38h8Z"></path></svg>